Jump_normalized_pl02_filtered_grf
version=1
nRows=30
nColumns=37
inDegrees=yes
endheader
time		1_ground_force_vx		1_ground_force_vy		1_ground_force_vz		1_ground_force_px		1_ground_force_py		1_ground_force_pz		1_ground_torque_x		1_ground_torque_y		1_ground_torque_z		2_ground_force_vx		2_ground_force_vy		2_ground_force_vz		2_ground_force_px		2_ground_force_py		2_ground_force_pz		2_ground_torque_x		2_ground_torque_y		2_ground_torque_z		3_ground_force_vx		3_ground_force_vy		3_ground_force_vz		3_ground_force_px		3_ground_force_py		3_ground_force_pz		3_ground_torque_x		3_ground_torque_y		3_ground_torque_z		4_ground_force_vx		4_ground_force_vy		4_ground_force_vz		4_ground_force_px		4_ground_force_py		4_ground_force_pz		4_ground_torque_x		4_ground_torque_y		4_ground_torque_z		
0.327000		-0.000000		0.000000		0.000000		0.145658		0.000000		0.221846		0.000000		0.000000		-0.000000		0.000000		0.000000		0.000000		-0.297438		0.000000		0.094812		0.000000		-0.000000		0.000000		-112.040681		648.315987		62.914161		0.413165		1.261245		1.874733		4.470296		-25.867075		-2.510204		126.603829		895.920750		71.355451		-0.355226		1.255761		1.902523		6.583924		46.591590		3.710779		
0.329475		-0.000000		0.000000		0.000000		0.145658		0.000000		0.221846		0.000000		0.000000		-0.000000		0.000000		0.000000		0.000000		-0.297438		0.000000		0.094812		0.000000		-0.000000		0.000000		-112.806381		653.788077		62.009845		0.413215		1.261234		1.874773		4.512664		-26.153891		-2.480618		128.253804		897.112661		68.986011		-0.355218		1.255754		1.902571		6.681133		46.733336		3.593691		
0.331949		-0.000000		0.000000		0.000000		0.145658		0.000000		0.221846		0.000000		0.000000		-0.000000		0.000000		0.000000		0.000000		-0.297438		0.000000		0.094812		0.000000		-0.000000		0.000000		-113.386795		659.163621		60.865101		0.413253		1.261227		1.874823		4.549654		-26.448991		-2.442216		129.806703		897.835541		66.525283		-0.355207		1.255748		1.902620		6.774054		46.854177		3.471668		
0.334424		-0.000000		0.000000		0.000000		0.145658		0.000000		0.221846		0.000000		0.000000		-0.000000		0.000000		0.000000		0.000000		-0.297438		0.000000		0.094812		0.000000		-0.000000		0.000000		-113.774144		664.324275		59.435371		0.413280		1.261224		1.874883		4.580775		-26.747026		-2.392986		131.235316		898.095523		63.990313		-0.355196		1.255742		1.902669		6.861418		46.955411		3.345624		
0.336899		-0.000000		0.000000		0.000000		0.145658		0.000000		0.221846		0.000000		0.000000		-0.000000		0.000000		0.000000		0.000000		-0.297438		0.000000		0.094812		0.000000		-0.000000		0.000000		-113.969013		669.156622		57.687923		0.413294		1.261226		1.874950		4.605776		-27.042317		-2.331313		132.514507		897.902076		61.396353		-0.355183		1.255738		1.902720		6.942094		47.038768		3.216394		
0.339374		-0.000000		0.000000		0.000000		0.145658		0.000000		0.221846		0.000000		0.000000		-0.000000		0.000000		0.000000		0.000000		-0.297438		0.000000		0.094812		0.000000		-0.000000		0.000000		-113.980479		673.556286		55.603685		0.413294		1.261231		1.875024		4.624668		-27.329017		-2.256072		133.622819		897.266792		58.755335		-0.355169		1.255736		1.902770		7.015152		47.106190		3.084632		
0.341848		-0.000000		-0.000000		-0.000000		0.145658		0.000000		0.221846		0.000000		-0.000000		-0.000000		0.000000		-0.000000		-0.000000		-0.297438		0.000000		0.094812		-0.000000		-0.000000		0.000000		-113.825887		677.431483		53.178385		0.413284		1.261240		1.875101		4.637723		-27.601279		-2.166697		134.543838		896.202055		56.074570		-0.355154		1.255736		1.902822		7.079913		47.159587		2.950731		
0.344323		0.000000		-0.000000		-0.000000		0.145658		0.000000		0.221846		-0.000000		-0.000000		0.000000		-0.000000		-0.000000		-0.000000		-0.297438		0.000000		0.094812		-0.000000		0.000000		-0.000000		-113.530241		680.705761		50.422908		0.413263		1.261251		1.875179		4.645480		-27.853421		-2.063222		135.267142		894.719740		53.355934		-0.355139		1.255738		1.902873		7.135964		47.200575		2.814767		
0.346798		0.000000		-0.000000		-0.000000		0.145658		0.000000		0.221846		-0.000000		-0.000000		0.000000		-0.000000		-0.000000		-0.000000		-0.297438		0.000000		0.094812		-0.000000		0.000000		-0.000000		-113.125200		683.319756		47.362745		0.413236		1.261263		1.875254		4.648725		-28.080094		-1.946302		135.788753		892.830089		50.595784		-0.355124		1.255742		1.902923		7.183162		47.230289		2.676489		
0.349273		0.000000		-0.000000		-0.000000		0.145658		0.000000		0.221846		-0.000000		-0.000000		0.000000		-0.000000		-0.000000		-0.000000		-0.297438		0.000000		0.094812		-0.000000		0.000000		-0.000000		-112.647616		685.231860		44.036401		0.413204		1.261275		1.875325		4.648459		-28.276435		-1.817178		136.111067		890.540929		47.785667		-0.355111		1.255748		1.902972		7.221620		47.249257		2.535351		
0.351747		0.000000		-0.000000		-0.000000		0.145658		0.000000		0.221846		-0.000000		-0.000000		0.000000		-0.000000		-0.000000		-0.000000		-0.297438		0.000000		0.094812		-0.000000		0.000000		-0.000000		-112.137634		686.417880		40.492639		0.413171		1.261284		1.875388		4.645844		-28.438189		-1.677598		136.242327		887.857308		44.913667		-0.355099		1.255756		1.903020		7.251677		47.257367		2.390584		
0.354222		0.000000		-0.000000		-0.000000		0.145658		0.000000		0.221846		-0.000000		-0.000000		0.000000		-0.000000		-0.000000		-0.000000		-0.297438		0.000000		0.094812		-0.000000		0.000000		-0.000000		-111.636394		686.869834		36.786661		0.413138		1.261291		1.875443		4.642127		-28.561808		-1.529678		136.195793		884.781556		41.966097		-0.355088		1.255766		1.903066		7.273866		47.253896		2.241295		
0.356697		0.000000		-0.000000		-0.000000		0.145658		0.000000		0.221846		-0.000000		-0.000000		0.000000		-0.000000		-0.000000		-0.000000		-0.297438		0.000000		0.094812		-0.000000		0.000000		-0.000000		-111.183523		686.594117		32.975607		0.413108		1.261295		1.875489		4.638544		-28.644511		-1.375728		135.988735		881.313700		38.929180		-0.355079		1.255776		1.903111		7.288870		47.237597		2.086562		
0.359172		0.000000		-0.000000		-0.000000		0.145658		0.000000		0.221846		-0.000000		-0.000000		0.000000		-0.000000		-0.000000		-0.000000		-0.297438		0.000000		0.094812		-0.000000		0.000000		-0.000000		-110.814675		685.609262		29.114028		0.413083		1.261297		1.875527		4.636236		-28.684349		-1.218062		135.641409		877.452081		35.790408		-0.355072		1.255788		1.903153		7.297489		47.206800		1.925513		
0.361646		0.000000		-0.000000		-0.000000		0.145658		0.000000		0.221846		-0.000000		-0.000000		0.000000		-0.000000		-0.000000		-0.000000		-0.297438		0.000000		0.094812		-0.000000		0.000000		-0.000000		-110.559444		683.943572		25.249997		0.413065		1.261296		1.875558		4.636158		-28.680235		-1.058821		135.176114		873.194026		32.539426		-0.355068		1.255800		1.903193		7.300604		47.159547		1.757387		
0.364121		0.000000		-0.000000		0.000000		0.145658		0.000000		0.221846		-0.000000		-0.000000		0.000000		-0.000000		-0.000000		-0.000000		-0.297438		0.000000		0.094812		-0.000000		0.000000		-0.000000		-110.439864		681.632882		21.422352		0.413053		1.261294		1.875584		4.639024		-28.631974		-0.899844		134.616354		868.536465		29.168413		-0.355065		1.255812		1.903233		7.299158		47.093715		1.581562		
0.366596		0.000000		0.000000		0.000000		0.145658		0.000000		0.221846		0.000000		0.000000		-0.000000		-0.000000		0.000000		0.000000		-0.297438		0.000000		0.094812		0.000000		0.000000		0.000000		-110.469591		678.718676		17.659222		0.413046		1.261290		1.875607		4.645270		-28.540262		-0.742573		133.986080		863.476529		25.672047		-0.355063		1.255825		1.903272		7.294124		47.007154		1.397566		
0.369071		-0.000000		0.000000		0.000000		0.145658		0.000000		0.221846		0.000000		0.000000		-0.000000		0.000000		0.000000		0.000000		-0.297438		0.000000		0.094812		0.000000		-0.000000		0.000000		-110.653722		675.246611		13.977737		0.413044		1.261287		1.875628		4.655042		-28.406650		-0.588023		133.308918		858.012156		22.047193		-0.355063		1.255837		1.903310		7.286487		46.897793		1.205066		
0.371545		-0.000000		0.000000		0.000000		0.145658		0.000000		0.221846		0.000000		0.000000		-0.000000		0.000000		0.000000		0.000000		-0.297438		0.000000		0.094812		0.000000		-0.000000		0.000000		-110.989167		671.265473		10.384730		0.413045		1.261285		1.875648		4.668215		-28.233492		-0.436783		132.607339		852.142757		18.292560		-0.355064		1.255850		1.903349		7.277203		46.763742		1.003853		
0.374020		-0.000000		0.000000		0.000000		0.145658		0.000000		0.221846		0.000000		0.000000		-0.000000		0.000000		0.000000		0.000000		-0.297438		0.000000		0.094812		0.000000		-0.000000		0.000000		-111.465508		666.826533		6.878053		0.413049		1.261285		1.875670		4.684420		-28.023878		-0.289055		131.901725		845.869907		14.408535		-0.355064		1.255862		1.903387		7.267153		46.603376		0.793840		
0.376495		-0.000000		0.000000		0.000000		0.145658		0.000000		0.221846		0.000000		0.000000		-0.000000		0.000000		0.000000		0.000000		-0.297438		0.000000		0.094812		0.000000		-0.000000		0.000000		-112.066230		661.983015		3.448181		0.413052		1.261286		1.875695		4.703098		-27.781528		-0.144710		131.209453		839.197881		10.397169		-0.355065		1.255874		1.903428		7.257096		46.415404		0.575060		
0.378970		-0.000000		0.000000		0.000000		0.145658		0.000000		0.221846		0.000000		0.000000		-0.000000		0.000000		0.000000		0.000000		-0.297438		0.000000		0.094812		0.000000		-0.000000		0.000000		-112.770130		656.789805		0.079784		0.413053		1.261289		1.875725		4.723559		-27.510702		-0.003343		130.544199		832.134198		6.262292		-0.355064		1.255886		1.903470		7.247630		46.198912		0.347671		
0.381444		-0.000000		0.000000		0.000000		0.145658		0.000000		0.221846		0.000000		0.000000		-0.000000		0.000000		0.000000		0.000000		-0.297438		0.000000		0.094812		0.000000		-0.000000		0.000000		-113.552479		651.304163		-3.246909		0.413052		1.261296		1.875758		4.745038		-27.216168		0.135678		129.915327		824.691630		2.010013		-0.355062		1.255897		1.903513		7.239149		45.953508		0.111999		
0.383919		-0.000000		0.000000		0.000000		0.145658		0.000000		0.221846		0.000000		0.000000		-0.000000		0.000000		0.000000		0.000000		-0.297438		0.000000		0.094812		0.000000		-0.000000		0.000000		-114.386933		645.583431		-6.554537		0.413047		1.261305		1.875798		4.766765		-26.902944		0.273141		129.327872		816.886800		-2.351902		-0.355058		1.255908		1.903558		7.231841		45.679206		-0.131520		
0.386394		-0.000000		0.000000		0.000000		0.145658		0.000000		0.221846		0.000000		0.000000		-0.000000		0.000000		0.000000		0.000000		-0.297438		0.000000		0.094812		0.000000		-0.000000		0.000000		-115.246508		639.684707		-9.867445		0.413038		1.261317		1.875844		4.788004		-26.576198		0.409947		128.782680		808.740958		-6.814029		-0.355052		1.255917		1.903604		7.225680		45.376464		-0.382325		
0.388869		-0.000000		0.000000		-0.000000		0.145658		0.000000		0.221846		0.000000		0.000000		-0.000000		0.000000		0.000000		0.000000		-0.297438		0.000000		0.094812		0.000000		-0.000000		0.000000		-116.104515		633.663493		-13.210450		0.413026		1.261334		1.875896		4.808081		-26.241072		0.547063		128.276874		800.279779		-11.365574		-0.355045		1.255926		1.903651		7.220452		45.046163		-0.639752		
0.391343		-0.000000		-0.000000		-0.000000		0.145658		0.000000		0.221846		-0.000000		-0.000000		0.000000		0.000000		-0.000000		-0.000000		-0.297438		0.000000		0.094812		-0.000000		-0.000000		-0.000000		-116.935305		627.571997		-16.607618		0.413010		1.261353		1.875955		4.826396		-25.902463		0.685460		127.804640		791.532818		-15.994613		-0.355035		1.255935		1.903700		7.215793		44.689576		-0.903055		
0.393818		0.000000		-0.000000		-0.000000		0.145658		0.000000		0.221846		-0.000000		-0.000000		0.000000		-0.000000		-0.000000		-0.000000		-0.297438		0.000000		0.094812		-0.000000		0.000000		-0.000000		-117.714927		621.457154		-20.081059		0.412993		1.261377		1.876021		4.842418		-25.564787		0.826067		127.358246		782.532620		-20.688326		-0.355024		1.255944		1.903749		7.211241		44.308324		-1.171416		
0.396293		0.000000		-0.000000		-0.000000		0.145658		0.000000		0.221846		-0.000000		-0.000000		0.000000		-0.000000		-0.000000		-0.000000		-0.297438		0.000000		0.094812		-0.000000		0.000000		-0.000000		-118.421804		615.358406		-23.649783		0.412977		1.261405		1.876094		4.855683		-25.231726		0.969714		126.929175		773.313563		-25.433275		-0.355010		1.255953		1.903798		7.206311		43.904299		-1.443962		
0.398768		0.000000		-0.000000		-0.000000		0.145658		0.000000		0.221846		-0.000000		-0.000000		0.000000		-0.000000		-0.000000		-0.000000		-0.297438		0.000000		0.094812		-0.000000		0.000000		-0.000000		-119.037386		609.305464		-27.328685		0.412961		1.261436		1.876173		4.865776		-24.905998		1.117084		126.509124		763.910569		-30.215766		-0.354996		1.255963		1.903846		7.200532		43.479562		-1.719800		
